/* XPM */
static char *wood31700140137[] = {
/* columns rows colors chars-per-pixel */
"64 64 22 1 ",
"  c black",
". c #201B14",
"X c #241E16",
"o c #262017",
"O c #28221A",
"+ c #2B231A",
"@ c #2C241B",
"# c #2D261C",
"$ c #31291F",
"% c #332A1F",
"& c #332B1F",
"* c #332B20",
"= c #362F23",
"- c #382F23",
"; c #3B3226",
": c #3D3325",
"> c #3E3528",
", c #423729",
"< c #473C2D",
"1 c #483F2F",
"2 c #4F4231",
"3 c #574B38",
/* pixels */
" %%%%+&*<22,23 +X&<<&,2=2<3 %@<;,;:>332 %%%X&<2=,33 %++++:<<2,:<",
" %%+XX@<<222;2 ++::<&<2=323 %@*<223333< +%%&+;2,,33 %%+++<<223<2",
" +XXX%:<<223;2 ++::<&;2;213 %:**2233332 ++%:**;%>33 +%&&+*222333",
" XX+%+&;<223>> +X+:<;,2,<23 %::*2233<2< ++%::<2233> XX%::*;22333",
" X%%++@;;<>23> %++;<;,2>2:3 **:*,2332>> +X++:<2232; *oX;<<;>3333",
" %%+X@@;*>>233 %+X&<;=2<123 **:*<222;>2 %+X+:<<22;2 %%X&<<2;2333",
" %+XX%;<;=;223 %%&&<<=22113 %%%*<22>><3 %%++*<<,;33 %%+%<<2><333",
" %+X%:<<2,;2<3 %%&&<<;2<:23 +++*<2,*333 %%+X%<<,>33 %%++;<2>;333",
" %+o;<<<<2;=23 *%&;<;;22>13 X+::<2>=<33 %%%++:<*,33 %%&&*<22>333",
" &+&:<<;>232;3 *%@;;;,22>13 X%%:<22,233 %%%+X:<*233 %&&:*222>233",
" %+&<<<,>233;< &+@<;;;22>13 X%%:<22,;<3 %%%X+:**23< %%&:*2222233",
" %+&;<2,==3322 &+&:;%;22>13 X+%:<<22,>3 %%XXo+*<232 %%::*,22>;33",
" %%@;<,;==233> *+%:<;*22>13 +X+::<22,>3 %+XXX:<<2<2 *&;;*;223>33",
" %%@;<2==>1332 #X%:<<;,,-13 %+X+:<22,,3 %%%%%:<<22< **;#;>223>33",
" %%@*<2,==2222 ++%:<<;,,,33 %%+X*<<,;,3 %%%%::<<2<> *###2>222>33",
" %%&*<2><>33<3 +X%::<;,,,33 %%%+#:;=,23 XX%%::<2>2> **+*>2222>33",
" %%:*<222333<3 &o%::<;;2-33 +%%++:*,223 %XX+;;<2,>2 %%+&:<<2=<33",
" %%:@*<2233323 *X%::<&;2-33 +%%++:*2223 %%+X#<22>>3 %%X&:<<,;333",
" +%:%%*,2332>3 *X%%:;&<2-33 X+%%+&*2223 %%%++22>>33 %XX::<<=>33:",
" +%:;<%;22<233 =++%;;;<2-33 X++%:;;,223 %%%%%22>>33 +X%%:<*;232:",
" ++::<<,>2>23< %%X%:;;<2=33 XX+::;;,223 %%+&*22<233 %%%%;$$2232;",
" +X::<<;>33332 %%X+:;;;2;33 %X+&<;=2223 %+&&*222<33 %%%%*O<>2,>;",
" +o+:<<<23332< %%++:;;;2=33 %X+&<<22233 &++*<22<>33 %%%+#&>22>>2",
" %++&<<<233323 %%++:<;;2;33 %++&<<22233 &++<<222>33 %%+X&;222>;3",
" %%&@<<<232;<3 %%+X:<;;2=33 %XX&<222233 %+@;<222>33 %%X+&;<<,=23",
" %%&@<<<23;223 %%%+<<;*2;<3 %XX&<222333 %%&*<<22>33 %XX++:<<;=33",
" %%:*<<<22>233 %%%#<<<;2>23 %X+<<222332 %%:+;<22>33 +X++&:<&=233",
" %%:*;<22>2<33 %%*+<<<=,2>3 %X&<<222<2< X%%%*<22>>3 +++%&:;&2233",
" %%:@*<2222233 %%:+;<<,,2:3 %X&<<2>222; XX%:*<222>> ++%%&;;&2233",
" %%:&*<22;>233 &%:;;<<,,2>3 %X&<<,>>;;2 %X+:**222<> %%%%%&*%2233",
" %%:&**22>2<13 *%:;*<2,,3;3 %X%<2,;<333 %++:;*22232 %%%&%&&<2223",
" +%::;*;==2213 *%:<*<2,,322 %%*;2,=3333 %X+:;*22233 %%%+++&<<22<",
" +%%:<**,,1133 %::<*<2,,3<2 %:**,2;<333 XX%:;*22233 %%++X%:<<2,2",
" +X%:<;;,21133 %:<<*<2=,32< +:<*=,=<333 X+%:;*22233 %++X+::<<,><",
" +X+:<;;,23333 %:<;*<2,,323 X:<<;%,3333 %%%:;*22233 +X+%%%:<;,,2",
" %+X&<<;,2333> %::;;22><3>3 X&<<2%=3333 %%+%;*22233 ++%%%%:;*>>3",
" %%+@<<<223>;2 %::*;22,2322 X@<<222333< %++@;,22333 %%%%&&**;223",
" %%+@<<<22->23 %***<22=<32> %@;<2223322 +X@%<222333 %%%%&*+;2233",
" %%+&:<<22-133 %%*;<22=332> %@*<2223<2< X+:<<22,>23 %%%%+@;22233",
" %%+%%<<2--13> %%+;<2,=333> %+@<22222;2 %%:<*-=%2<< %%%++&<22,>>",
" +%%&@<<2-,32; %%@;<2,>333> %+@;>222<23 %%:**<2,>>2 %%%+&;<2,:23",
" +%%+@<<2,,3;2 %%&;<22>333> %%@*;<22;<3 %%:*<;-,3;< %%%+&<<,;<33",
" +%%+@;<<-,2>2 %%&;<22>333> %%+@*<22=33 %%:%<*223>2 %%&+&<<,=333",
" X%%+&*;<--22; %%&*<22>333> %%%&+22>;33 %%%:<*,32>3 %%&*&<<2;333",
" .X%+&@;<;;,33 %&:*<22;333> %%%&O<<,=23 X%%:<;=>;23 &%%+=2<2:233",
" +.%+&o;<*=:23 %&;*;22;<3>> %%%+o<*=,23 +++:<<23333 &*%+;>222;>3",
" %X+%&o<<*=><2 %&:;;22,23>3 X%%XO+*2222 +++:<<22322 O#***;2232>>",
" %X+%X@<<*=>2< %%:%;22:<3>3 X+%Xo#<222< +X+:<2223>< O**>;;;23332",
" XX%%X&<<<;=3< %%%+;22,23>3 %X%%*:<2222 %X+:<222>2< +%%:;;,23331",
" +%%+&&<<;,233 %%%#<<,*23;3 %XX%&:<22>< ++%:<;,2,>3 +%%;<;=,3333",
" %%++&;<;;,233 %%%+<<=,22;3 %%X+%:<2,,3 +%:<;;;22>2 X%%:<<,=:333",
" %%++&<;;;2333 %%&#<<=22<23 %+X+%<<2,,3 %%::;;;22,< X+%:<<22,:13",
" %++%%<;;,2332 %&&+<;;222>3 *X+%:<<2,,3 %%+&;;;2222 +X+;;<<222:>",
" %++&<<;*,23>> %&%*<;>2>223 +X%%:<22>23 %%++@*;;223 %+X%*<<22332",
" %++:<<;=22>>3 %%;%<*>2:3<3 ++*%:<2,,<3 %%+X&*<;223 %%+X+;<22333",
" %+%:<<;=22;23 %%%%<=222323 X+%%&;2,>23 %+X+:%@;223 %%%+X#=22333",
" ++%:<<,;23>33 %%&;<;22;2<3 +%%X+*22<<2 %+X%%%@;223 %%%%++*22333",
" %%::<<2==3>33 %%+&<=2:2<23 %%X@;*;=32< ++X%%:@;,,3 %%%%**O,2333",
" %%::<<2,-3>33 %%X&<=22<2>3 %%X&;<2;333 +X+%%:@*,,< %%%%%:*%2333",
" %%::<<,,-3:33 %+X:<-2<2233 %%X&<22=233 X+%%%:<*=;2 %%%%%:;%2333",
" %%::<<,--3>13 %X+:<>>2>333 +%X*>22*;33 %%%%::<<2,: %%%%%;;%2333",
" %%::<<;-22>13 %X%:<,>3>333 X+%*;>22>33 %%%%%@<<22> %%%%%;<*2333",
" %%%::<;:22-13 +X%:<=,2=233 ++;*==3<>32 %%%%@*;<232 +%%%%:<;=>33",
" %%%*::;<22,13 +X::<;,2=>23 +@;&=;2>>3< %%%X@<;=23> %X++%:<<,*23"
};
