/* XPM */
static char *wood_141700140138[] = {
/* columns rows colors chars-per-pixel */
"64 64 14 1 ",
"  c black",
". c #1E1B16",
"X c #211C18",
"o c #25211B",
"O c #29221D",
"+ c #2E2821",
"@ c #302921",
"# c #322A23",
"$ c #393128",
"% c #3B3229",
"& c #3D342B",
"* c #493E33",
"= c #4B4035",
"- c #5A4D3F",
/* pixels */
"---------*****-------------------------------***%**---*%*-------",
"--------**#&&*-----------------------------****%%**---*%%**-----",
"---**&&&###&&&======-------------------******%%%**--==&####&***-",
"%%########&&&==========&*******************%%#&&&=====&&&#######",
"#####&&&&&&=====*==&#########%%%%%%%%%%%%%&&&&&========$+++&&###",
"&&&&=*=*==$$%$$$++O#############&*****&&&&&&&=======$$$$$$$$+++&",
"%$**==%$$$$$$$$+++oo++$$===================*==**=*%$$$$$$$$$$$$$",
"%$%%%%$$$$$$$$$+++$$$$%%$$=================%%%%%%%$$$$$$$$$$$$$$",
"                                                                ",
"--------------------------------------------*%%*----------------",
"-----------------**=*******-----------------*%%%##=-------------",
"------------****%%%%%%%%%%%******------------*%%#OO##******-----",
"*******%&&&#%#+#+#O%%%%%%#%%%%%%%***------------&#+##+#+********",
"#OOOOOOOOOOOOO#%%%==*****%%%###OO#%%***=====---====#%%$%%#OOOO+#",
"#############&&*=-------*&&&&&&####O#%&&&=============%#########",
"$$%%$$%%============----=======&&&###OO#&&&==============*======",
"$$$$$$$$$$$$*=*===============*==**&###OOO#&&*$$$$$$$$$$$$$$**%$",
"$$$%$$$$$$$$%%%===============*%%%%$$+oooO#o+$$$$$$$$$$$$$$%%%$$",
"$%%%%%$$&%$%$&%&%&%%%%%$%%$$$%%%$$%%$$%$%++o+%%%$&$$%%$%$%%%%%$$",
"                                                                ",
"---------------=**%%%*--------------*%%%#O&=------*%%*----------",
"----------------**%%%%%%$==*---------%%%+#+%***---*%%%%*-%%-----",
"-------------------*%%%++#+&****------***$%#%***=--*%%%##XO##&&-",
"+#+%%%**--======-----**%%%%#O#%%****----*****%%*****==####OOOOOO",
"OOO##O#######&&===-------*%%%%%+#%%$%***---****%%*&&&&==&&&##OOO",
"=&&&##OOOOOOOOO##&&---------**%%%%#+%%%%***--***&&##&&&=========",
"======&&&&&#########===--------****%%$#+#+%%%*=&&&&###&==**=====",
"===============&&###&&============&&**$#++%%#&===&####&=%%%%$$$=",
"%*=========&+++++ooo+%============&###OOO###&==&&&##o+$$$$$$$$$$",
"#O++&&&&&&+oooOOooo+++$$$$====&&##OOOOO##&===&&&##o++$$$$$$$$$++",
"oooooooooooooO#O++$$%$$$$$$+++o.OOOO&&&&===&&###o+++$$$$$++++ooo",
"++++++++O#++%%%%%%$$$$$$$++oooo.oo#O$$$=&#ooooo++$$+++oooooooooo",
"%%%%%%$%%%%%%%%%%%%%%%%%%+ooO+++%%%%$%%$+ooo++%%$%%+++oooo+++++%",
"                                                                ",
"------------***%%%%****-------------***%%%$%&%**----------------",
"-------*****%%%#+%%****--------------***$+##%%%%%%%*------------",
"****%%%%%%%%#+%%%**--------------------*****%%+##%%%%%%%%&&&&&&*",
"#####%#++%%%%***&=====&&&&&******----------******#OOOOOOOO######",
"#####&&&*****-=*===&&&&######%%%%****--------==&%&&&&&&#########",
"&&&&&&&&=======*&&&#####&&&&&&&%%%%%%*****-===========%%+++++&&&",
"%%$$$**=====&&#O####%&&&&=======&&&%%%%%&&&&&&&=**$$$$$$%%$$$$$$",
"$$$$$$%++ooo....oo+++%===*==========&&&&&###&&+++$$$$$$$$$$$$$$$",
"$$$$oo........o++$$$$$$$%+++++&=======&&&&&&+ooo++++$$$$$$$$$$$$",
"$$$+oo...oo++%%$%%$$$$$$+o.....++&========&++++oOOoo$$%%$$$$$$$$",
"                                                                ",
"**%%*----------------------------**%**--------------------------",
"%%%%*-====&&&***********---------**%%%%*----================&*%%",
"##&&====&&&&####%%%%%%%%%***-------*%%######&&&&&&&&&###########",
"=*==**==&###&&&&&&&&&**%%%%%**-----==&#############ooooooooo##%&",
"%%%%$$%=##&%&&===*=====&&&####&==========*&%%++++++++++$$$$%$$%%",
"%%%$%%%%+++%%%%%%%%%%=====&&##&==========%%%%%%%%%%%%%%%$%%%%%$$",
"                                                                ",
"*****%%%%%%%-----------------**%%%**--------------------------**",
"---***%%%%%%%%%*-------------&&#####&&*-----------=====---------",
"----------%%%%%%%%*------=======&&####&&&======*==========------",
"%%%*---------*%%%%%%%%-===========&&&######&&&&%&&&&&&&&&&&##%%%",
"%%%%***----------%%%######&*=***==$$$++ooooooooooooooooo#######%",
"=###***-----------==&######o%%%$%%$$$$$$$++++++++++++++++++%%===",
"####&&&===========**###oOooo%%%%%$$$$$$$$$$$$$$$$$$$$$$$%$$$%%=&",
"ooO+==**====&&&&&###oooooo$$++++++++++++$$$$$$$$$$$$$$$$%$$+++oo",
"+$$$$$$$%=&&&&####oooo$$$$+++ooo.....oo++%$$$$%%$$$$%%++++++oooo",
"%%$$$$$+++oooo+++++$$$$$$+oooooooooooo.oo%$$$+++++++++oooooo++++",
"%%$$%%%+oooo++++%%%%$$%%%++++o+++%%++oooo+%%++++++oooooo++++++$$",
"                                                                "
};
