/* XPM */
static char *wood21700140514[] = {
/* columns rows colors chars-per-pixel */
"64 64 30 1 ",
"  c black",
". c #0A0908",
"X c #0F0D0B",
"o c #161210",
"O c #171411",
"+ c #1C1714",
"@ c #1C1815",
"# c #211C1A",
"$ c #241E1A",
"% c #241F1A",
"& c #241F1B",
"* c #27211E",
"= c #29231E",
"- c #29241F",
"; c #2B2421",
": c #2E2622",
"> c #2E2822",
", c #302A24",
"< c #332B26",
"1 c #352B27",
"2 c #382E2A",
"3 c #38312A",
"4 c #3B312C",
"5 c #423731",
"6 c #423A31",
"7 c #453832",
"8 c #453C34",
"9 c #4D3F39",
"0 c #4D4339",
"q c #594941",
/* pixels */
"8800833888000000000000040040800000083388888888333388800000883338",
"8008333880000000000000066636800000083333333333333888800088833388",
"0003338000000000000000466633880000008333333333388888000883338880",
"0033330000000000000000006063338000000888888888888880008833888000",
"0833300000000000000000000468333300000000000,,,,,,6666,,&38800000",
"033380000000008860606000000083333866666666666666666,,&&&,,600000",
"83330000000833333333360600000,&&&&,66666666666666,,,&&&,,6666000",
"3338000003333333333333%>,866486,&&&&,6666666666,,&&&&&,,66666600",
"333000883333333806-,,**%,,,66666,&&&&&&,,,,,,,,&&&&&,,6666666663",
"33000833333380000666,>>*%,,,66666,&&&&&&&&&&&&&&&&,,,666666666,3",
"3800833333000066666666,,%*,,,6666666,&&&&&&&&&&,,,66666666666,,&",
"80083338000066666666666,,-%%,,66666666,,,,,,,,,,666666666666,,&&",
"808833880066,,,,,,,,6666,,,%%%,66666666666666666666666666666,&&,",
"68833880666,,&&&,,,,,6660-%*%%%66666666666666666666666666666&&&,",
",&&&,,,666,,&&&&*,,,6603-*%%%%,36666666666666666666666666666&&&6",
"&&&,,,6666,&&&&,666333---=%%*-00666666666666666666666666666,&&@,",
"&&,,6666036>==,33333,-----=-,,-,,&&&&&,,,66666666333333333>&&@&,",
"&&,6666640663,3333--==-----=*=%%&&&&&&&%&&&,66633333333333--&&,,",
"&&,666660433333,,------,----%=%=&&&&&&%%&&%%&&,3333333333>;--3,,",
"&&,,66663333>,,=-----,------=,-,,,6666,,&&%%%---,33333333;---33,",
",&,,,,63,,,,,------=-----,,,33333666666666,,---->;--,,,,&---333,",
",,-,,,,,,,-----=,,-==-,,,33333333333333333333,-------,>;---3333,",
",,,----------,>=-----,,33333333,,,,,,,333333333,,----%%@@@>33333",
"3,,,,----,,,-===--OO>>>>-,=,,,,-,,,,--->,,3333333>>%>>%OOO>>>>33",
"33,,,,,,,--,=OOOOO>>>>>==**@oOO=;;;;&;;------->>>>>>%OOOO&>>>>>>",
">>3333,,,,-OOoO=>>>>>=>==oOoooO*%>,,,,-------OOOOOOOOOOO&>>>>>>>",
">>>>&&&&OOOOO=-,>>>>=*=oOOO*=*==%&&&%>>%%OOOOOOOOOOOOOO%>>>>>>>>",
">&&&&OOOOO&&>>,,>>>>**ooO@**--=->>>>>>>>>>>>,%OOOOOOO%>>>>>>>>>>",
"&&OOOOO&&&*->>=->&*.......%%%%=->>>>>>>>>>>>>>>>>>>>>>>>>>>>>>>>",
"XXXXO&&&*->>>>%%&&=XXX..**%%%%%%%>>>>>>>>>>>>>>>>>>>>>%%%%%%&&%X",
"XX....&&-->>*@*&%=..X..$@%%%%%%%%%%%>>>>>>>>>>>>>>%%%%%%%%%%%.XX",
"...&&&&&**>***&&%.....*$**%%%%%%%%%%%%%%%>>>>>>>>>%%%%%%%%%%...X",
"                                                                ",
"qqqqqqqq777qqqqqqqq7111111qqqqqqqq6<16887187787qqqqqqqqqqqqqqqqq",
"qqqqqqqq7777qqqqqqq77111177qqqq7004>2708771777777qqqqqqqqqqqqqqq",
"qqqqqqqqq777177qqqqq777777qq7777333377qq7771177778qqqqqqqqqqqqqq",
"qqqqqqqqqq71111777qqqqqqqq77777111777qqq09757711111qqqqqqqqqqqqq",
"777777qqqqq7111117777777777711117777qq9999254444:>:1111777777777",
"777777777qqq7711111111111111177777q99999999944242>:::11111777777",
"1111177777qqqq77711111111177777qq99999999999999999::::1111111111",
"7777711787999999944444478777qqqq99999999999999999999997777777777",
"77777744:44999999999999999qqqq9999999999999999999999999qq7777777",
"qqq94444::44999999999999999999999999999999999999999999999qqqqqqq",
"999999442>449999999999999999999999999999999999999999999999999qq9",
"999999944>444999999999999999999999999999999999999999999999999999",
"9999999444444999999999999999999999999999555999999999999999999999",
"9999999444444999999999999999999999999975555599999999999999999999",
"8477999444;44178477999999999999999997775555559999999999999999997",
"78745559244>11254554709999999944443>1,<1118458999999999999999555",
"74785555542:;>11><21<<44444444::;;;;,1<><<1114709999999999995555",
"784855555511#;;;&;&;;&;;::>>::::;;;#;;;;;>1<<1459999999999955555",
"447755555551<<&;;&;&&;&&;;>;:;;1<<11,><1;;**&;;&7799999995555555",
"85555555555814<<<<<22<121<21<<55374211111<1>;&;&=&<5599555555555",
"55555555555444845555747584478455484755481<<<>;&;&=;,155555555555",
"52222222222222455555455574787875478755477748777&;=$;>11555555555",
";;22222222222224245555557774744887845588484747775,;$**,111,11,1;",
";;;;2222222222222222745555587884744884877222222222;;##@;**>;&###",
"##;;;2222222222222222255555474<1<2<<<>;;;;;;2222222;;;$#$+$@@&##",
";###;222222222222222222;>11<<<1;;;@######;;;;;2222222;>;;;;;;;;;",
";;#@@&$>::22222222222;;;;###&@&@@;@#######@###;;;22222222222222;",
"2$$++++$$;;>::2;;;;;;;&@####*@&;;;;;;;;;;;;##@@@@#$$:::::::;>222",
">;;$++++**>>::@;&&&;###*;;;;;;;;222222222$*&$&@@@@$$$::::::>;>:;",
">>>>$@o@o$>>;<;@*&*@@;;;;>2222222222222>>>>>>$$*$@@$::::::>>>;::",
"                                                                "
};
